General
ID                             : 0 (0x0)
Format                         : BDAV
Format/Info                    : Blu-ray Video
File size                      : 2.40 GiB
Duration                       : 21mn 40s
Overall bit rate mode          : Variable
Overall bit rate               : 15.9 Mbps
Maximum Overall bit rate       : 40.0 Mbps

Video
ID                             : 4113 (0x1011)
Menu ID                        : 1 (0x1)
Format                         : AVC
Format/Info                    : Advanced Video Codec
Format profile                 : Main@L4.0
Format settings, CABAC         : Yes
Format settings, ReFrames      : 2 frames
Format settings, GOP           : M=3, N=16
Codec ID                       : 27
Duration                       : 21mn 40s
Bit rate mode                  : Variable
Bit rate                       : 15.0 Mbps
Maximum bit rate               : 16.0 Mbps
Width                          : 1 920 pixels
Height                         : 1 080 pixels
Display aspect ratio           : 16:9
Frame rate                     : 29.970 fps
Color space                    : YUV
Chroma subsampling             : 4:2:0
Bit depth                      : 8 bits
Scan type                      : Interlaced
Scan order                     : Top Field First
Bits/(Pixel*Frame)             : 0.241
Stream size                    : 2.26 GiB (94%)

Audio
ID                             : 4352 (0x1100)
Menu ID                        : 1 (0x1)
Format                         : AC-3
Format/Info                    : Audio Coding 3
Mode extension                 : CM (complete main)
Format settings, Endianness    : Big
Codec ID                       : 129
Duration                       : 21mn 40s
Bit rate mode                  : Constant
Bit rate                       : 256 Kbps
Channel(s)                     : 2 channels
Channel positions              : Front: L R
Sampling rate                  : 48.0 KHz
Bit depth                      : 16 bits
Compression mode               : Lossy
Delay relative to video        : 15ms
Stream size                    : 39.7 MiB (2%)
